{"title":"The 4th Floor 1999 DVDRIP Hindi GOPI SAHI PDR","uid":11561948,"size":682821323,"categoryP":"video","categoryS":"movies","magnet":"?xt=urn:btih:863b70cb56a5bab5d669b8e4d6ed9b1530083f68&amp;dn=The+4th+Floor+1999+DVDRIP+Hindi+GOPI+SAHI+PDR&amp;tr=udp%3A%2F%2Ftracker.openbittorrent.com%3A80&amp;tr=udp%3A%2F%2Fopen.demonii.com%3A1337&amp;tr=udp%3A%2F%2Ftracker.coppersurfer.tk%3A6969&amp;tr=udp%3A%2F%2Fexodus.desync.com%3A6969","seeders":1,"leechers":0,"uploader":"jatt13","files":1,"time":1416890952,"description":"General\nUnique ID                      : 235384543167125504602872658809594588435 (0xB11569FCC40175B4930DFCE6F5282D13)\nComplete name                  : D:FILMDUBThe 4th Floor 1999 DVDRIP Hindi GOPI SAHI PDR.mkv\nFormat                         : Matroska\nFormat version                 : Version 4 / Version 2\nFile size                      : 651 MiB\nDuration                       : 1h 30mn\nOverall bit rate mode          : Constant\nOverall bit rate               : 1 008 Kbps\nMovie name                     : GOPI SAHI\nEncoded date                   : UTC 2014-11-02 15:05:38\nWriting application            : mkvmerge v6.5.0 ('Isn't she lovely') built on Oct 20 2013 12:50:05\nWriting library                : libebml v1.3.0 + libmatroska v1.4.1\nAttachment                     : Yes\n\nVideo\nID                             : 1\nFormat                         : AVC\nFormat/Info                    : Advanced Video Codec\nFormat profile                 : &lt;a class=&quot;__cf_email__&quot; href=&quot;/cdn-cgi/l/email-protection&quot; data-cfemail=&quot;b0fdd1d9def0fc839e80&quot;&gt;[email&amp;#160;protected]&lt;/a&gt;&lt;script cf-hash='f9e31' type=&quot;text/javascript&quot;&gt;\n/* &lt;![CDATA[ */!function(){try{var t=&quot;currentScript&quot;in document?document.currentScript:function(){for(var t=document.getElementsByTagName(&quot;script&quot;),e=t.length;e--;)if(t[e].getAttribute(&quot;cf-hash&quot;))return t[e]}();if(t&amp;&amp;t.previousSibling){var e,r,n,i,c=t.previousSibling,a=c.getAttribute(&quot;data-cfemail&quot;);if(a){for(e=&quot;&quot;,r=parseInt(a.substr(0,2),16),n=2;a.length-n;n+=2)i=parseInt(a.substr(n,2),16)^r,e+=String.fromCharCode(i);e=document.createTextNode(e),c.parentNode.replaceChild(e,c)}}}catch(u){}}();/* ]]&gt; */&lt;/script&gt;\nFormat settings, CABAC         : No\nFormat settings, ReFrames      : 1 frame\nFormat settings, GOP           : M=1, N=12\nCodec ID                       : V_MPEG4/ISO/AVC\nDuration                       : 1h 30mn\nBit rate mode                  : Constant\nBit rate                       : 900 Kbps\nWidth                          : 688 pixels\nHeight                         : 512 pixels\nDisplay aspect ratio           : 16:9\nOriginal display aspect ratio  : 4:3\nFrame rate mode                : Constant\nFrame rate                     : 23.976 fps\nColor space                    : YUV\nChroma subsampling             : 4:2:0\nBit depth                      : 8 bits\nScan type                      : Progressive\nBits/(Pixel*Frame)             : 0.107\nStream size                    : 566 MiB (87%)\nTitle                          : GOPI SAHI\nLanguage                       : English\nDefault                        : Yes\nForced                         : No\n\nAudio\nID                             : 2\nFormat                         : MPEG Audio\nFormat version                 : Version 1\nFormat profile                 : Layer 2\nCodec ID                       : A_MPEG/L2\nCodec ID/Hint                  : MP2\nDuration                       : 1h 30mn\nBit rate mode                  : Constant\nBit rate                       : 112 Kbps\nChannel(s)                     : 2 channels\nSampling rate                  : 48.0 KHz\nCompression mode               : Lossy\nDelay relative to video        : 4s 958ms\nStream size                    : 72.3 MiB (11%)\nTitle                          : GOPI SAHI\nLanguage                       : Hindi\nDefault                        : No\nForced                         : No\n[IMG] http://i.imgur.com/JiUvjCD.jpg\n[IMG] http://i.imgur.com/KuCcJS7.jpg\n[IMG] http://i.imgur.com/zOaHHii.jpg","torrent":{"xt":"urn:btih:863b70cb56a5bab5d669b8e4d6ed9b1530083f68","amp;dn":"The+4th+Floor+1999+DVDRIP+Hindi+GOPI+SAHI+PDR","amp;tr":["udp%3A%2F%2Ftracker.openbittorrent.com%3A80","udp%3A%2F%2Fopen.demonii.com%3A1337","udp%3A%2F%2Ftracker.coppersurfer.tk%3A6969","udp%3A%2F%2Fexodus.desync.com%3A6969"],"infoHash":"863b70cb56a5bab5d669b8e4d6ed9b1530083f68","infoHashBuffer":{"type":"Buffer","data":[134,59,112,203,86,165,186,181,214,105,184,228,214,237,155,21,48,8,63,104]},"announce":[],"urlList":[]}}